<?xml version="1.0" encoding="UTF-8"?>
<svg width="22px" height="23px" viewBox="0 0 22 23" version="1.1" xmlns="http://www.w3.org/2000/svg" xmlns:xlink="http://www.w3.org/1999/xlink">
    <!-- Generator: Sketch 53 (72520) - https://sketchapp.com -->
    <title>sg-doctor-hospital</title>
    <desc>Created with Sketch.</desc>
    <g id="Page-1" stroke="none" stroke-width="1" fill="none" fill-rule="evenodd">
        <g id="智能搜索引擎-排名查看" transform="translate(-445.000000, -377.000000)" fill="#024EC2" fill-rule="nonzero">
            <g id="sg-doctor-hospital" transform="translate(445.000000, 377.000000)">
                <path d="M4.39855856,15.092381 L10.2594595,15.092381 L10.2594595,16.5293333 L4.39855856,16.5293333 L4.39855856,15.092381 Z M8.0627027,5.75388633 L8.0627027,3.60015361 L6.5981982,3.60015361 L6.5981982,5.75388633 L4.39855856,5.75388633 L4.39855856,7.18970814 L6.5981982,7.18970814 L6.5981982,9.34626728 L8.0627027,9.34626728 L8.0627027,7.18970814 L10.2594595,7.18970814 L10.2594595,5.75388633 L8.0627027,5.75388633 Z M4.39855856,11.5 L10.2594595,11.5 L10.2594595,12.9361045 L4.39855856,12.9361045 L4.39855856,11.5 Z M16.8526126,15.092381 L18.3171171,15.092381 L18.3171171,16.5290507 L16.8526126,16.5290507 L16.8526126,15.092381 Z" id="Shape"></path>
                <path d="M19.845045,7.90761905 L14.6558559,7.90761905 L14.6558559,2.28304147 C14.6558559,0.804823349 13.9841441,0.00777265736 12.4590991,0.00777265736 L2.26234234,0.00777265736 C0.717117117,0.00777265736 0.00216216216,0.844393241 0.00216216216,2.16150538 L0.00216216216,22.9922273 L21.9812613,22.9922273 L21.9812613,10.0019969 C21.9812613,8.58596006 21.2893694,7.90761905 19.845045,7.90761905 Z M13.1913514,7.90761905 L13.1913514,21.5564055 L10.2594595,21.5564055 L10.2594595,18.6819355 L4.39855856,18.6819355 L4.39855856,21.5564055 L1.46954955,21.5564055 L1.46954955,2.87941628 C1.46954955,2.10215054 2.0172973,1.44359447 2.93405405,1.44359447 L11.7268468,1.44359447 C12.5196396,1.44359447 13.1913514,2.10215054 13.1913514,2.87941628 L13.1913514,7.90761905 L13.1913514,7.90761905 Z M20.5167568,21.5564055 L18.32,21.5564055 L18.32,18.6819355 L16.8526126,18.6819355 L16.8526126,21.5564055 L14.6558559,21.5564055 L14.6558559,9.34626728 L19.0522523,9.34626728 C19.7845045,9.34626728 20.5167568,10.0048233 20.5167568,10.7820891 L20.5167568,21.5564055 L20.5167568,21.5564055 Z" id="Shape"></path>
                <polygon id="Path" points="16.8526126 11.5 18.3171171 11.5 18.3171171 12.9361045 16.8526126 12.9361045"></polygon>
            </g>
        </g>
    </g>
</svg>