<?xml version="1.0" encoding="UTF-8"?>
<svg viewBox="0 0 60 60" version="1.1" xmlns="http://www.w3.org/2000/svg" xmlns:xlink="http://www.w3.org/1999/xlink">
    <!-- Generator: Sketch 53 (72520) - https://sketchapp.com -->
    <title>Group 4</title>
    <desc>Created with Sketch.</desc>
    <defs>
        <rect id="path-1" x="0" y="0" width="53" height="53" rx="1.62"></rect>
        <filter x="-10.3%" y="-8.4%" width="120.5%" height="120.5%" filterUnits="objectBoundingBox" id="filter-3">
            <feMorphology radius="0.4455" operator="dilate" in="SourceAlpha" result="shadowSpreadOuter1"></feMorphology>
            <feOffset dx="0" dy="1" in="shadowSpreadOuter1" result="shadowOffsetOuter1"></feOffset>
            <feGaussianBlur stdDeviation="1.5" in="shadowOffsetOuter1" result="shadowBlurOuter1"></feGaussianBlur>
            <feComposite in="shadowBlurOuter1" in2="SourceAlpha" operator="out" result="shadowBlurOuter1"></feComposite>
            <feColorMatrix values="0 0 0 0 0.184750782   0 0 0 0 0.332027266   0 0 0 0 0.616423234  0 0 0 0.1 0" type="matrix" in="shadowBlurOuter1"></feColorMatrix>
        </filter>
    </defs>
    <g id="Page-1" stroke="none" stroke-width="1" fill="none" fill-rule="evenodd">
        <g id="智能搜索引擎" transform="translate(-408.000000, -405.000000)">
            <g id="Group-4" transform="translate(411.000000, 408.000000)">
                <g id="Group">
                    <g id="Group-2">
                        <mask id="mask-2" fill="white">
                            <use xlink:href="#path-1"></use>
                        </mask>
                        <g id="Mask-Copy">
                            <use fill="black" fill-opacity="1" filter="url(#filter-3)" xlink:href="#path-1"></use>
                            <use stroke="#287DFF" stroke-width="0.891" fill="#FFFFFF" fill-rule="evenodd" xlink:href="#path-1"></use>
                        </g>
                    </g>
                </g>
                <g id="nanxing" transform="translate(10.000000, 9.000000)" fill="#287DFF" fill-rule="nonzero">
                    <path d="M29.6704067,27.1884914 L21.0560603,25.0165627 L21.0560603,21.8876042 C23.8273164,19.7208891 25.4818796,16.4264118 25.5649974,12.9096512 L25.5649974,7.60768496 C25.5685949,5.11125082 23.5524659,3.08209578 21.0560603,3.06961618 L20.4939267,3.06961618 L19.3135541,0.686212977 C19.0302954,0.115890127 18.3593926,-0.144990575 17.7652592,0.0841581838 L10.6722339,2.93906308 C8.83674743,3.78835523 7.62639509,5.58849438 7.53248594,7.6087639 L7.53248594,12.913967 C7.61560374,16.4307276 9.27016699,19.7252049 12.041423,21.8919199 L12.041423,25.0208784 L3.43247134,27.1884914 C1.42157501,27.699275 0.0144028621,29.5104647 0.0165118392,31.5852176 L0.0165094718,35.6043108 L33.0852991,35.6043108 L33.0852873,31.5852176 C33.0899946,29.5087685 31.6828267,27.694789 29.6704067,27.1830967 L29.6704067,27.1884914 Z" id="Path"></path>
                </g>
            </g>
        </g>
    </g>
</svg>