<?xml version="1.0" encoding="UTF-8"?>
<svg width="56px" height="56px" viewBox="0 0 56 56" version="1.1" xmlns="http://www.w3.org/2000/svg" xmlns:xlink="http://www.w3.org/1999/xlink">
    <!-- Generator: Sketch 53 (72520) - https://sketchapp.com -->
    <title>Group</title>
    <desc>Created with Sketch.</desc>
    <defs>
    </defs>
    <g id="Page-1" stroke="none" stroke-width="1" fill="none" fill-rule="evenodd">
        <g id="智能搜索引擎" transform="translate(-408.000000, -341.000000)">
            <g id="Group" transform="translate(411.000000, 344.000000)">
                <circle r="26" cx="26" cy="26" stroke="#FEB2DF" />
                <g id="nvxing" transform="translate(10.158333, 6.183333)" fill="#FEB2DF" fill-rule="nonzero">
                    <path d="M26.5090565,28.2834724 C18.4093919,25.8600687 19.9417784,21.4538927 19.9417785,21.4538927 C25.8523733,22.5554367 29.5737955,20.132033 29.5737955,20.132033 C27.1658083,18.3695763 27.8225259,18.5898921 26.0712563,8.67599598 C24.3199868,-1.23790011 16.439205,0.0839596251 16.439205,0.0839596251 C16.439205,0.0839596251 8.33954034,-1.45818126 6.58823646,8.67599598 C4.83693259,18.8101732 5.49368439,18.3695763 3.08569729,20.1320675 C3.08569729,20.1320675 7.02607098,22.5554367 12.7177143,21.4538927 C12.7177143,21.4538927 14.2501009,25.8600687 6.1504362,28.2834724 C6.1504362,28.2834724 -0.416876179,29.3850164 0.02095837,35.3333333 L32.6385687,35.3333333 C33.2952862,29.1647007 26.5090565,28.2834724 26.5090565,28.2834724 Z" id="Path"></path>
                </g>
            </g>
        </g>
    </g>
</svg>