<?xml version="1.0" encoding="UTF-8"?>
<svg width="15px" height="28px" viewBox="0 0 15 28" version="1.1" xmlns="http://www.w3.org/2000/svg" xmlns:xlink="http://www.w3.org/1999/xlink">
    <!-- Generator: Sketch 53 (72520) - https://sketchapp.com -->
    <title>zhexiantu</title>
    <desc>Created with Sketch.</desc>
    <g id="Page-1" stroke="none" stroke-width="1" fill="none" fill-rule="evenodd">
        <g id="智能搜索引擎-排名查看" transform="translate(-1833.000000, -480.000000)" fill="#1E8BA2" fill-rule="nonzero">
            <g id="Group-5" transform="translate(1765.000000, 425.000000)">
                <g id="Group-10" transform="translate(0.680000, 49.000000)">
                    <g id="zhexiantu" transform="translate(74.820000, 20.000000) scale(1, -1) rotate(90.000000) translate(-74.820000, -20.000000) translate(60.820000, 12.500000)">
                        <path d="M24.0268466,0.81776813 C24.6425772,0.0688364106 25.6724846,-0.199222254 26.5770317,0.154019864 C27.4815788,0.507261982 28.0545879,1.4012887 27.995877,2.3677468 C27.9371662,3.3342049 27.2601177,4.15280491 26.3194164,4.39470736 L25.1992846,4.39470736 C25.0258969,4.35017711 24.8585343,4.28495759 24.700826,4.20046305 L20.8307707,9.26532755 C21.2795108,9.8612953 21.4003702,10.641083 21.152978,11.3442165 C20.9055858,12.04735 20.3225509,12.5811487 19.5986257,12.7673068 L18.4784939,12.7673068 C17.4891709,12.512728 16.7980365,11.623259 16.7982962,10.6049435 C16.7212505,10.6052693 16.6449724,10.5896852 16.5742698,10.5591733 L11.9122813,8.53858592 C11.6098457,8.96726301 11.1584326,9.28653813 10.6330908,9.41938338 C10.6364512,9.44171031 10.6375713,9.46515359 10.6375713,9.48859687 L9.51743954,9.48859687 C9.51743954,9.46515359 9.51855967,9.44171031 9.52192006,9.41938338 C9.14716565,9.32382552 8.80368027,9.13304683 8.52500277,8.86567547 L4.36371315,12.136571 C4.55860405,12.723412 4.50065309,13.3645163 4.20366219,13.9071949 C3.90667129,14.4498736 3.39722244,14.8455544 2.79664877,15 L1.67763711,14.9988837 C0.775392377,14.7655535 0.112390563,13.9998189 0.0128652398,13.0761535 C-0.0866600831,12.1524882 0.39808961,11.2639173 1.23005294,10.8449863 C2.06201627,10.4260553 3.06733187,10.5643113 3.75436146,11.1921418 L7.93581344,7.90673374 C7.6709154,7.04073654 7.95697407,6.10104103 8.66002552,5.52771538 C9.36307696,4.95438973 10.3439258,4.86094527 11.1432313,5.29114291 C11.9425368,5.72134055 12.4020465,6.59000653 12.3065677,7.49033646 L17.0223226,9.53325073 C17.0360257,9.53941422 17.0494779,9.54611758 17.0626473,9.55334497 C17.6168652,8.51691266 18.8819935,8.08556819 19.9570679,8.56649458 L23.876409,3.43911468 C23.3499085,2.62579701 23.411116,1.56669985 24.0268466,0.81776813 Z M11.0923448,7.73035098 C11.1030602,7.65940077 11.1274005,7.59117488 11.1640333,7.5294086 C11.2477511,7.19564186 11.1727011,6.84204733 10.9605394,6.57065693 C10.7483778,6.29926653 10.4227085,6.1402738 10.0775054,6.13955709 C9.52206693,6.1400037 9.05084612,6.54604514 8.97015918,7.09373494 C8.88947224,7.64142474 9.22369189,8.16532494 9.75555927,8.32487522 C10.2874267,8.4844255 10.8562832,8.23143128 11.0923448,7.73035098 L11.0923448,7.73035098 Z M2.23658288,11.7212901 C1.61795117,11.7212901 1.11645108,12.2210954 1.11645108,12.8376366 C1.11645108,13.4541778 1.61795117,13.9539832 2.23658288,13.9539832 C2.85521458,13.9539832 3.35671467,13.4541778 3.35671467,12.8376366 C3.35671467,12.2210954 2.85521458,11.7212901 2.23658288,11.7212901 Z M19.0385598,9.48859687 C18.4199281,9.48859687 17.918428,9.98840226 17.918428,10.6049435 C17.918428,11.2214847 18.4199281,11.7212901 19.0385598,11.7212901 C19.6571915,11.7212901 20.1586916,11.2214847 20.1586916,10.6049435 C20.1586916,9.98840226 19.6571915,9.48859687 19.0385598,9.48859687 Z M25.7593505,1.11599742 C25.1407188,1.11599742 24.6392187,1.61580281 24.6392187,2.23234401 C24.6392187,2.84888521 25.1407188,3.3486906 25.7593505,3.3486906 C26.3779822,3.3486906 26.8794823,2.84888521 26.8794823,2.23234401 C26.8794823,1.61580281 26.3779822,1.11599742 25.7593505,1.11599742 Z" id="Shape"></path>
                    </g>
                </g>
            </g>
        </g>
    </g>
</svg>