<?xml version="1.0" encoding="UTF-8"?>
<svg width="32px" height="23px" viewBox="0 0 32 23" version="1.1" xmlns="http://www.w3.org/2000/svg" xmlns:xlink="http://www.w3.org/1999/xlink">
    <!-- Generator: Sketch 53 (72520) - https://sketchapp.com -->
    <title>Group 4</title>
    <desc>Created with Sketch.</desc>
    <g id="Page-1" stroke="none" stroke-width="1" fill="none" fill-rule="evenodd" fill-opacity="0.3">
        <g id="智能搜索引擎-排名查看" transform="translate(-1828.000000, -433.000000)" fill="#1E8BA2" fill-rule="nonzero" stroke="#1E8BA2" stroke-width="0.81">
            <g id="Group-5" transform="translate(1765.000000, 425.000000)">
                <g id="Group-9" transform="translate(1.000000, 0.000000)">
                    <g id="Group-4" transform="translate(62.000000, 9.000000)">
                        <path d="M16.9214744,-12.8253205 L15.0785256,-12.8253205 C14.0606932,-12.8253205 13.2355769,-11.9528498 13.2355769,-10.8766026 L13.2355769,16.4054487 C13.2355769,17.4816959 14.0606932,18.3541667 15.0785256,18.3541667 L16.9214744,18.3541667 C17.9393068,18.3541667 18.7644231,17.4816959 18.7644231,16.4054487 L18.7644231,-10.8766026 C18.7644231,-11.9528498 17.9393068,-12.8253205 16.9214744,-12.8253205 Z" id="Path" transform="translate(16.000000, 2.764423) rotate(90.000000) translate(-16.000000, -2.764423) "></path>
                        <path d="M12.8189103,-0.929487179 L10.9759615,-0.929487179 C9.95812907,-0.929487179 9.13301282,-0.0350549294 9.13301282,1.06828317 L9.13301282,20.0471014 C9.13301282,21.1504395 9.95812907,22.0448718 10.9759615,22.0448718 L12.8189103,22.0448718 C13.8367427,22.0448718 14.661859,21.1504395 14.661859,20.0471014 L14.661859,1.06828317 C14.661859,-0.0350549294 13.8367427,-0.929487179 12.8189103,-0.929487179 Z" id="Path" transform="translate(11.897436, 10.557692) rotate(90.000000) translate(-11.897436, -10.557692) "></path>
                        <path d="M9.53685897,10.5560897 L7.69391026,10.5560897 C6.67607778,10.5560897 5.85096154,11.4285605 5.85096154,12.5048077 L5.85096154,24.1971154 C5.85096154,25.2733626 6.67607778,26.1458333 7.69391026,26.1458333 L9.53685897,26.1458333 C10.5546914,26.1458333 11.3798077,25.2733626 11.3798077,24.1971154 L11.3798077,12.5048077 C11.3798077,11.4285605 10.5546914,10.5560897 9.53685897,10.5560897 Z" id="Path" transform="translate(8.615385, 18.350962) rotate(90.000000) translate(-8.615385, -18.350962) "></path>
                    </g>
                </g>
            </g>
        </g>
    </g>
</svg>