<?xml version="1.0" encoding="UTF-8"?>
<svg width="21px" height="21px" viewBox="0 0 21 21" version="1.1" xmlns="http://www.w3.org/2000/svg" xmlns:xlink="http://www.w3.org/1999/xlink">
    <!-- Generator: Sketch 53 (72520) - https://sketchapp.com -->
    <title>Group 20</title>
    <desc>Created with Sketch.</desc>
    <g id="Page-1" stroke="none" stroke-width="1" fill="none" fill-rule="evenodd">
        <g id="智能风险预警-违规行为预警-参保人违规预警" transform="translate(-186.000000, -487.000000)" fill-rule="nonzero">
            <g id="Group-20" transform="translate(186.000000, 487.000000)">
                <g id="Group-7" transform="translate(0.000000, 0.000000)" fill="#004AC5">
                    <circle id="Oval-9" cx="10.0686562" cy="10.0686562" r="10.0686562"></circle>
                </g>
                <g id="feiyong" transform="translate(6.557760, 5.274720)" fill="#FFFFFF">
                    <path d="M6.09785406,4.22477834 C6.4039507,4.22477834 6.65209106,3.98844539 6.65209106,3.69691391 C6.65209106,3.40538244 6.4039507,3.16904948 6.09785406,3.16904948 L4.11022161,3.16904948 L6.49058293,0.901954235 C6.70712238,0.695381406 6.70683546,0.360733955 6.48994208,0.154498219 C6.2730487,-0.0517375169 5.92168197,-0.0514642648 5.7051425,0.155108544 L3.32604553,2.42220379 L0.945684205,0.157516926 C0.726945487,-0.0356767069 0.386969584,-0.0295755666 0.176027616,0.171329031 C-0.0349143519,0.372233628 -0.0413203106,0.696032266 0.161525446,0.904362616 L2.54188677,3.16906598 L0.554237002,3.16906598 C0.248140358,3.16906598 0,3.40539894 0,3.69693041 C0,3.98846189 0.248140358,4.22479484 0.554237002,4.22479484 L2.77118501,4.22479484 L2.77118501,5.28049071 L0.554237002,5.28049071 C0.248140358,5.28049071 0,5.51682367 0,5.80835514 C0,6.09988661 0.248140358,6.33621957 0.554237002,6.33621957 L2.77118501,6.33621957 L2.77118501,8.97613557 C2.77118501,9.26766704 3.01932537,9.504 3.32542201,9.504 C3.63151866,9.504 3.87965902,9.26766704 3.87965902,8.97613557 L3.87965902,6.33623607 L6.09660702,6.33623607 C6.40270367,6.33623607 6.65084403,6.09990311 6.65084403,5.80837164 C6.65084403,5.51684016 6.40270367,5.28050721 6.09660702,5.28050721 L3.87965902,5.28050721 L3.87965902,4.22477834 L6.09660702,4.22477834 L6.09785406,4.22477834 Z" id="Path"></path>
                </g>
            </g>
        </g>
    </g>
</svg>