<?xml version="1.0" encoding="UTF-8"?>
<svg width="21px" height="21px" viewBox="0 0 21 21" version="1.1" xmlns="http://www.w3.org/2000/svg" xmlns:xlink="http://www.w3.org/1999/xlink">
    <!-- Generator: Sketch 53 (72520) - https://sketchapp.com -->
    <title>Group 21</title>
    <desc>Created with Sketch.</desc>
    <g id="Page-1" stroke="none" stroke-width="1" fill="none" fill-rule="evenodd">
        <g id="智能风险预警-违规行为预警-参保人违规预警" transform="translate(-186.000000, -540.000000)" fill-rule="nonzero">
            <g id="Group-21" transform="translate(186.000000, 540.000000)">
                <g id="Group-2" transform="translate(0.000000, -0.000000)" fill="#004AC5">
                    <circle id="Oval-9" cx="10.3142332" cy="10.3142332" r="10.3142332"></circle>
                </g>
                <g id="shouyeicon--" transform="translate(4.405452, 4.429791)" fill="#FFFFFF">
                    <path d="M7.81878659,6.50955183 C6.09999634,6.50955183 4.69371341,5.0491811 4.69371341,3.26428354 C4.69371341,1.47938598 6.09999634,0.0190152439 7.81878659,0.0190152439 C9.53757683,0.0190152439 10.9438598,1.47938598 10.9438598,3.26428354 C10.9438598,5.0491811 9.53757683,6.50955183 7.81878659,6.50955183 Z M7.81878659,0.830332317 C6.49063049,0.830332317 5.47498171,1.88504451 5.47498171,3.26428354 C5.47498171,4.64352256 6.49063049,5.69823476 7.81878659,5.69823476 C9.14694268,5.69823476 10.1625915,4.64352256 10.1625915,3.26428354 C10.1625915,1.88504451 9.14694268,0.830332317 7.81878659,0.830332317 L7.81878659,0.830332317 Z" id="Shape"></path>
                    <path d="M12.1157622,10.5661372 C11.8813817,10.5661372 11.725128,10.4038738 11.725128,10.1604787 C11.725128,8.13218598 10.1625915,6.50955183 8.20942073,6.50955183 C6.25625,6.50955183 4.69371341,8.13218598 4.69371341,10.1604787 C4.69371341,10.4038738 4.53745976,10.5661372 4.30307927,10.5661372 C4.06869878,10.5661372 3.91244512,10.4038738 3.91244512,10.1604787 C3.91244512,7.72652744 5.86561585,5.69823476 8.20942073,5.69823476 C10.5532256,5.69823476 12.5063963,7.72652744 12.5063963,10.1604787 C12.5063963,10.4038738 12.3501427,10.5661372 12.1157622,10.5661372 Z M4.30307927,6.50955183 C2.34990854,6.50955183 0.787371951,5.0491811 0.787371951,3.26428354 C0.787371951,1.47938598 2.34990854,0.0190152439 4.30307927,0.0190152439 C4.53745976,0.0190152439 4.69371341,0.181278659 4.69371341,0.42467378 C4.69371341,0.668068902 4.53745976,0.830332317 4.30307927,0.830332317 C2.81866951,0.830332317 1.56864024,1.88504451 1.56864024,3.26428354 C1.56864024,4.64352256 2.81866951,5.69823476 4.30307927,5.69823476 C4.53745976,5.69823476 4.69371341,5.86049817 4.69371341,6.10389329 C4.69371341,6.34728841 4.53745976,6.50955183 4.30307927,6.50955183 Z" id="Shape"></path>
                    <path d="M0.396737805,10.5661372 C0.162357317,10.5661372 0.00610365854,10.4038738 0.00610365854,10.1604787 C0.00610365854,7.72652744 1.95927439,5.69823476 4.30307927,5.69823476 C4.53745976,5.69823476 4.69371341,5.86049817 4.69371341,6.10389329 C4.69371341,6.34728841 4.53745976,6.50955183 4.30307927,6.50955183 C2.34990854,6.50955183 0.787371951,8.13218598 0.787371951,10.1604787 C0.787371951,10.4038738 0.631118293,10.5661372 0.396737805,10.5661372 L0.396737805,10.5661372 Z" id="Path"></path>
                </g>
            </g>
        </g>
    </g>
</svg>