<?xml version="1.0" encoding="UTF-8"?>
<svg width="21px" height="21px" viewBox="0 0 21 21" version="1.1" xmlns="http://www.w3.org/2000/svg" xmlns:xlink="http://www.w3.org/1999/xlink">
    <!-- Generator: Sketch 53 (72520) - https://sketchapp.com -->
    <title>Group 22</title>
    <desc>Created with Sketch.</desc>
    <g id="Page-1" stroke="none" stroke-width="1" fill="none" fill-rule="evenodd">
        <g id="智能风险预警-违规行为预警-参保人违规预警" transform="translate(-186.000000, -591.000000)" fill-rule="nonzero">
            <g id="Group-22" transform="translate(186.000000, 591.000000)">
                <g id="Group-3" transform="translate(0.000000, 0.000000)" fill="#004AC5">
                    <circle id="Oval-9" cx="10.0686562" cy="10.0686562" r="10.0686562"></circle>
                </g>
                <g id="sg-doctor-hospital-2" transform="translate(5.227200, 4.847040)" fill="#FFFFFF">
                    <g id="sg-doctor-hospital">
                        <path d="M2.09019503,7.17189943 L4.87529514,7.17189943 L4.87529514,7.8547392 L2.09019503,7.8547392 L2.09019503,7.17189943 Z M3.83139632,2.73424678 L3.83139632,1.710793 L3.13546378,1.710793 L3.13546378,2.73424678 L2.09019503,2.73424678 L2.09019503,3.41654931 L3.13546378,3.41654931 L3.13546378,4.44134621 L3.83139632,4.44134621 L3.83139632,3.41654931 L4.87529514,3.41654931 L4.87529514,2.73424678 L3.83139632,2.73424678 Z M2.09019503,5.4648 L4.87529514,5.4648 L4.87529514,6.14723684 L2.09019503,6.14723684 L2.09019503,5.4648 Z M8.00836151,7.17189943 L8.70429405,7.17189943 L8.70429405,7.85460489 L8.00836151,7.85460489 L8.00836151,7.17189943 Z" id="Shape"></path>
                        <path d="M9.43036541,3.75770057 L6.9644627,3.75770057 L6.9644627,1.08490131 C6.9644627,0.382452055 6.6452653,0.00369356678 5.92056389,0.00369356678 L1.07506508,0.00369356678 C0.340774054,0.00369356678 0.00102745946,0.401255668 0.00102745946,1.02714735 L0.00102745946,10.9259064 L10.4454954,10.9259064 L10.4454954,4.75294894 C10.4454954,4.08004822 10.1167083,3.75770057 9.43036541,3.75770057 Z M6.26853016,3.75770057 L6.26853016,10.2436039 L4.87529514,10.2436039 L4.87529514,8.87765574 L2.09019503,8.87765574 L2.09019503,10.2436039 L0.698329946,10.2436039 L0.698329946,1.36829862 C0.698329946,0.998941936 0.958619676,0.685996092 1.39426249,0.685996092 L5.57259762,0.685996092 C5.94933276,0.685996092 6.26853016,0.998941935 6.26853016,1.36829862 L6.26853016,3.75770057 L6.26853016,3.75770057 Z M9.74956281,10.2436039 L8.705664,10.2436039 L8.705664,8.87765574 L8.00836151,8.87765574 L8.00836151,10.2436039 L6.9644627,10.2436039 L6.9644627,4.44134621 L9.05363027,4.44134621 C9.40159654,4.44134621 9.74956281,4.75429206 9.74956281,5.12364874 L9.74956281,10.2436039 L9.74956281,10.2436039 Z" id="Shape"></path>
                        <polygon id="Path" points="8.00836151 5.4648 8.70429405 5.4648 8.70429405 6.14723684 8.00836151 6.14723684"></polygon>
                    </g>
                </g>
            </g>
        </g>
    </g>
</svg>