<?xml version="1.0" encoding="UTF-8"?>
<svg width="44px" height="44px" viewBox="0 0 44 44" version="1.1" xmlns="http://www.w3.org/2000/svg" xmlns:xlink="http://www.w3.org/1999/xlink">
    <!-- Generator: Sketch 53 (72520) - https://sketchapp.com -->
    <title>Group 2</title>
    <desc>Created with Sketch.</desc>
    <g id="Page-1" stroke="none" stroke-width="1" fill="none" fill-rule="evenodd">
        <g id="智能风险预警" transform="translate(-518.000000, -152.000000)" fill-rule="nonzero">
            <g id="Group-17" transform="translate(496.000000, 134.000000)">
                <g id="Group-2" transform="translate(22.950000, 18.900000)">
                    <circle id="Oval-9" fill="#B10B0B" cx="21.1882496" cy="21.1882496" r="21.1882496"></circle>
                    <path d="M34.1084573,27.4384202 L22.839671,7.88604215 C22.4480451,7.19378129 21.7142142,6.76580421 20.9188552,6.76580421 C20.1234962,6.76580421 19.3896653,7.19378129 18.9980394,7.88604215 L7.72925307,27.4384202 C7.3266047,28.123761 7.32361886,28.9726838 7.72143636,29.66084 C8.11925387,30.3489962 8.8564042,30.7700523 9.65124372,30.763135 L32.1864666,30.763135 C32.9813062,30.7700523 33.7184565,30.3489962 34.116274,29.66084 C34.5140915,28.9726838 34.5111057,28.123761 34.1084573,27.4384202 Z M32.3368424,28.623217 C32.3062868,28.6768452 32.2481054,28.7086632 32.1864666,28.7054537 L9.65124372,28.7054537 C9.58686659,28.7127632 9.52425688,28.6813212 9.49167402,28.6253194 C9.45909117,28.5693176 9.46269854,28.4993493 9.50086793,28.4469953 L20.7696542,8.94865861 C20.7983699,8.8965293 20.8531722,8.86415056 20.9126874,8.86415056 C20.9722026,8.86415056 21.0270049,8.8965293 21.0557207,8.94865861 L32.3368424,28.4599182 C32.3662127,28.5104351 32.3662127,28.5727001 32.3368424,28.623217 L32.3368424,28.623217 Z" id="Shape" fill="#FFFFFF"></path>
                    <path d="M19.8967697,14.4127042 L19.8967697,22.4378375 C19.8967697,23.0023197 20.354373,23.459923 20.9188552,23.459923 C21.4833374,23.459923 21.9409407,23.0023197 21.9409407,22.4378375 L21.9409407,15.5869277 C21.9409407,15.0224454 21.4833374,14.5648422 20.9188552,14.5648422 C20.354373,14.5648422 19.8967697,15.0224454 19.8967697,15.5869277 L19.8967697,14.4121168 L19.8967697,14.4127042 Z M19.6794297,25.9804798 C19.6793687,26.4233246 19.9155885,26.8325561 20.2990931,27.0539961 C20.6825978,27.2754361 21.1551126,27.2754361 21.5386172,27.0539961 C21.9221219,26.8325561 22.1583417,26.4233246 22.1582807,25.9804798 C22.1581864,25.2960307 21.6033043,24.741225 20.9188552,24.741225 C20.234406,24.741225 19.679524,25.2960307 19.6794297,25.9804798 L19.6794297,25.9804798 Z" id="Shape" fill="#FFFFFF"></path>
                </g>
            </g>
        </g>
    </g>
</svg>