<?xml version="1.0" encoding="UTF-8"?>
<svg width="43px" height="44px" viewBox="0 0 43 44" version="1.1" xmlns="http://www.w3.org/2000/svg" xmlns:xlink="http://www.w3.org/1999/xlink">
    <!-- Generator: Sketch 53 (72520) - https://sketchapp.com -->
    <title>Group 3</title>
    <desc>Created with Sketch.</desc>
    <g id="Page-1" stroke="none" stroke-width="1" fill="none" fill-rule="evenodd">
        <g id="智能风险预警" transform="translate(-948.000000, -153.000000)" fill-rule="nonzero">
            <g id="Group-10" transform="translate(921.000000, 134.000000)">
                <g id="Group-3" transform="translate(27.000000, 19.800000)">
                    <circle id="Oval-9" fill="#FEB53C" cx="21.1882496" cy="21.1882496" r="21.1882496"></circle>
                    <g id="weixian" transform="translate(11.475000, 9.450000)" stroke="#FFFFFF" stroke-width="1.485">
                        <path d="M19.2622057,3.52323815 C19.1235071,3.52323815 18.8877194,3.50927263 18.5548427,3.48134159 C18.2358358,3.45341056 17.6810413,3.35565194 16.8765893,3.20203125 C16.0860071,3.03444504 15.3509043,2.82496228 14.671281,2.54565194 C13.0346372,1.87530711 11.7308701,1.17703125 10.7322399,0.450824353 L10.1358358,0.017893319 L9.53943172,0.450824353 C8.55467145,1.17703125 7.23703446,1.87530711 5.60039062,2.54565194 C4.92076734,2.82496228 4.1856646,3.03444504 3.39508241,3.20203125 C2.60450021,3.36961746 2.04970569,3.45341056 1.71682898,3.48134159 C1.39782213,3.50927263 1.16203446,3.52323815 1.00946597,3.52323815 L0.0108358305,3.55116918 L0.0108358305,13.7459968 C0.0108358305,14.9609968 0.371452269,16.2178933 1.09268515,17.5306519 C1.81391802,18.8434106 2.68771939,19.9746175 3.72795912,20.9522037 C4.76819884,21.9158244 5.87778789,22.7118588 7.04285638,23.3403071 C8.20792487,23.9687554 9.23429473,24.2759968 10.1080961,24.2759968 C10.9818975,24.2759968 12.0082673,23.9687554 13.1733358,23.3403071 C14.3384043,22.7118588 15.4479934,21.9158244 16.4882331,20.9522037 C17.5284728,19.988583 18.416144,18.8434106 19.1235071,17.5306519 C19.8308701,16.2178933 20.2053564,14.9609968 20.2053564,13.7459968 L20.2053564,3.55116918 L19.2622057,3.52323815 Z" id="Shape"></path>
                    </g>
                    <path d="M20.46734,14.8505874 L20.46734,22.8757207 C20.46734,23.440203 20.9249433,23.8978062 21.4894255,23.8978062 C22.0539078,23.8978062 22.511511,23.440203 22.511511,22.8757207 L22.511511,16.0248109 C22.511511,15.4603287 22.0539078,15.0027254 21.4894255,15.0027254 C20.9249433,15.0027254 20.46734,15.4603287 20.46734,16.0248109 L20.46734,14.85 L20.46734,14.8505874 Z M20.25,26.418363 C20.249939,26.8612078 20.4861588,27.2704393 20.8696635,27.4918793 C21.2531681,27.7133193 21.7256829,27.7133193 22.1091876,27.4918793 C22.4926922,27.2704393 22.728912,26.8612078 22.728851,26.418363 C22.7287567,25.7339139 22.1738747,25.1791082 21.4894255,25.1791082 C20.8049764,25.1791082 20.2500943,25.7339139 20.25,26.418363 L20.25,26.418363 Z" id="Shape" fill="#FFFFFF"></path>
                </g>
            </g>
        </g>
    </g>
</svg>