<?xml version="1.0" encoding="UTF-8"?>
<svg width="135px" height="135px" viewBox="0 0 135 135" version="1.1" xmlns="http://www.w3.org/2000/svg" xmlns:xlink="http://www.w3.org/1999/xlink">
    <!-- Generator: Sketch 53 (72520) - https://sketchapp.com -->
    <title>Group 8</title>
    <desc>Created with Sketch.</desc>
    <g id="Page-1" stroke="none" stroke-width="1" fill="none" fill-rule="evenodd">
        <g id="一级页面" transform="translate(-246.000000, -482.000000)">
            <g id="Group-8" transform="translate(248.000000, 484.000000)">
                <g id="jiance" transform="translate(33.000000, 35.000000)" fill="#3365BB" fill-rule="nonzero">
                    <path d="M62.7642023,0.0475486381 L2.19735409,0.0475486381 C0.979299611,0.0475486381 0,0.678832685 0,1.89688716 L0,45.5607004 C0,46.7868482 0.983346304,47.7661479 2.19735409,47.7661479 L11.4359533,47.7661479 C12.1013201,47.7638387 12.7307567,47.4639655 13.151751,46.948716 L25.4617899,31.6886381 L31.0745525,36.3261479 C31.9757604,37.0683874 33.299289,36.9796791 34.0933852,36.1238132 L45.0154086,24.3357977 C47.1898144,25.6489102 49.9027248,25.6898622 52.1157743,24.4429793 C54.3288239,23.1960964 55.6993268,20.8544556 55.7027237,18.3143191 C55.763991,15.7592101 54.4358839,13.3715304 52.2327414,12.0759617 C50.0295988,10.7803929 47.297405,10.7803929 45.0942625,12.0759617 C42.89112,13.3715304 41.5630129,15.7592101 41.6242802,18.3143191 C41.6242802,19.2491051 41.810428,20.1434241 42.1503502,20.960856 L32.2764202,28.2003891 L26.4896498,24.2710506 C26.0445136,23.8906615 25.5103502,23.5345525 24.9235798,23.5952529 C24.3249065,23.6315926 23.7655214,23.9054583 23.3696498,24.3560311 L10.3878599,39.6768093 L8.19859922,39.6768093 L8.19859922,8.14498054 L56.7589105,8.14498054 L56.7589105,39.6768093 L28.1933074,39.6768093 C26.9752529,39.6768093 25.9919066,40.3040467 25.9919066,41.5180545 L25.9919066,56.3572763 L15.0941634,56.3572763 C13.8801556,56.3572763 12.9170428,56.6445914 12.8968093,60.5779767 C12.8806226,63.3944747 13.8801556,64.4506615 15.0941634,64.4506615 L44.667393,64.4506615 C45.8894942,64.4506615 46.8080934,62.969572 46.8687938,60.5779767 C46.9335409,57.9961868 45.8894942,56.3572763 44.667393,56.3572763 L34.4373541,56.3572763 L34.4373541,47.7701946 L62.7520623,47.7701946 C63.3369427,47.7712757 63.8981203,47.539134 64.311314,47.1251808 C64.7245077,46.7112275 64.9556183,46.1496246 64.953463,45.5647471 L64.953463,1.89688716 C64.9575097,0.678832685 63.9701167,0.0475486381 62.7642023,0.0475486381 Z M48.6655253,15.6637354 C50.1226974,15.6637354 51.3039689,16.8450068 51.3039689,18.302179 C51.3039689,19.7593511 50.1226974,20.9406226 48.6655253,20.9406226 C47.2083531,20.9406226 46.0270817,19.7593511 46.0270817,18.302179 C46.0270817,16.8450068 47.2083531,15.6637354 48.6655253,15.6637354 L48.6655253,15.6637354 Z" id="Shape"></path>
                </g>
                <circle id="Oval" stroke="#3365BB" stroke-width="3" cx="65.5" cy="65.5" r="65.5"></circle>
            </g>
        </g>
    </g>
</svg>