<?xml version="1.0" encoding="UTF-8"?>
<svg width="135px" height="135px" viewBox="0 0 135 135" version="1.1" xmlns="http://www.w3.org/2000/svg" xmlns:xlink="http://www.w3.org/1999/xlink">
    <!-- Generator: Sketch 53 (72520) - https://sketchapp.com -->
    <title>Group</title>
    <desc>Created with Sketch.</desc>
    <g id="Page-1" stroke="none" stroke-width="1" fill="none" fill-rule="evenodd">
        <g id="一级页面" transform="translate(-531.000000, -482.000000)" stroke="#3365BB" stroke-width="3">
            <g id="Group" transform="translate(533.000000, 484.000000)">
                <circle id="Oval" cx="65.5" cy="65.5" r="65.5"></circle>
                <circle id="Oval" cx="65.5" cy="65.5" r="65.5"></circle>
            </g>
        </g>
         <g transform="translate(32%,32%) scale(2)">
         <g id="基金实时监测" transform="translate(-39.000000, -511.000000)" fill="#3365BB" fill-rule="nonzero">
            <g id="jiansuo" transform="translate(39.000000, 511.000000)">
                <path d="M4.38839632,4.4050907 C10.2049336,-1.42838117 19.6330541,-1.42838117 25.4460061,4.4050907 C30.8167722,9.79855822 31.2231052,18.2744313 26.6787487,24.1405621 L29.0581869,26.5270364 C29.4459959,26.3910566 29.8618897,26.451624 30.1361645,26.7289277 L35.4907967,32.2898463 C35.9019101,32.6995669 35.8379724,33.4257819 35.3515679,33.9115087 L33.3432074,35.8674794 C32.8585955,36.3561752 32.1337692,36.4879984 31.7274362,36.0747149 L26.1857712,30.6901544 C25.9114964,30.4176011 25.8499489,30.0019425 25.9826047,29.6100358 L23.5410215,27.1564623 C17.6286389,31.3824784 9.49957228,30.6988081 4.38600613,25.5454882 C-1.42634831,19.7078598 -1.42634831,10.2462819 4.38839632,4.4050907 Z M7.46158836,22.464864 C9.4301497,24.4491188 12.1170892,25.56625 14.9210853,25.56625 C17.7250814,25.56625 20.4120209,24.4491188 22.3805822,22.464864 C26.497094,18.3308421 26.497094,11.6268624 22.3805822,7.48868388 C20.4123422,5.50383393 17.7252824,4.38628956 14.9210853,4.38628956 C12.1168881,4.38628956 9.42982842,5.50383393 7.46158836,7.48868388 C3.34268641,11.6262686 3.34268641,18.3302483 7.46158836,22.464864 Z M21.2751175,8.58958543 C21.6413956,8.95593912 21.6413956,9.54740135 21.2751175,9.91375504 C21.102077,10.08893 20.8654301,10.1876176 20.6184116,10.1876176 C20.3713931,10.1876176 20.1347463,10.08893 19.9617058,9.91375504 L19.9617058,9.91197365 C18.6286557,8.57296033 16.8118453,7.81969137 14.9164035,7.82013757 C13.0209617,7.82058378 11.2045106,8.57470804 9.87209908,9.91434884 C9.69839452,10.0885186 9.46185914,10.186498 9.21509448,10.186498 C8.96832983,10.186498 8.73179444,10.0885186 8.55808989,9.91434884 C8.19299756,9.54820432 8.19299756,8.95810514 8.55808989,8.59196062 C10.2352462,6.89926655 12.5256275,5.94590172 14.9161033,5.94545525 C17.3065792,5.94500877 19.5973209,6.89751797 21.2751175,8.58958543 L21.2751175,8.58958543 Z" id="Shape"></path>
            </g>
        </g>
         </g>
    </g>
</svg>