<?xml version="1.0" encoding="UTF-8"?>
<svg width="30px" height="21px" viewBox="0 0 30 21" version="1.1" xmlns="http://www.w3.org/2000/svg" xmlns:xlink="http://www.w3.org/1999/xlink">
    <!-- Generator: Sketch 53 (72520) - https://sketchapp.com -->
    <title>chehui</title>
    <desc>Created with Sketch.</desc>
    <g id="Page-1" stroke="none" stroke-width="1" fill="none" fill-rule="evenodd">
        <g id="基金实时监测" transform="translate(-1731.000000, -39.000000)" fill="#000000" fill-rule="nonzero">
            <g id="chehui" transform="translate(1731.000000, 39.000000)">
                <path d="M29.8272439,20.4168932 C29.8218695,20.4428878 29.8149469,20.4685596 29.8065108,20.49378 C29.7208461,20.7250633 29.4980856,20.9862297 29.2566813,20.9795371 C28.928648,20.9705099 28.6806542,20.4724572 28.610258,20.3368934 C28.2058819,19.5577522 26.9135174,18.2702859 25.5927052,17.1306791 C24.8141686,16.4586192 22.6375125,15.2569113 20.1146615,14.5756686 C17.1789605,13.7974014 14.0946776,13.7033709 11.1142377,14.3012727 L11.006554,14.1941913 L11.0386984,19.8016424 C10.6724117,20.1345287 10.0968492,20.1169716 9.75292358,19.7624207 L0.271941368,10.336773 C-0.0850406028,9.99442791 -0.08813366,9.43674598 0.265030346,9.09070731 L9.6428291,0.240154791 C10.0090819,-0.0928185206 10.5847179,-0.0752591524 10.9286039,0.27937644 L10.9565695,5.26379471 C11.0181867,5.37855522 11.0537513,5.50474824 11.060878,5.63391014 C12.7339665,5.42671562 14.4273659,5.42478077 16.1009547,5.6281514 C18.3028441,5.89663294 20.1604673,6.44293452 21.465368,7.03748497 C24.4748847,8.408842 26.5342138,10.2995747 27.8156492,12.3184002 C28.3874975,13.2194087 29.1192641,14.9257062 29.5675174,16.8066335 C29.9961626,18.6067828 30.1284367,19.8598523 29.8272439,20.4168932 L29.8272439,20.4168932 Z M27.6150683,14.8039946 C26.7437951,12.5448586 25.0740558,10.7073553 23.300008,9.48105615 C22.2979072,8.78845159 21.0720816,8.19701398 19.4335223,7.70207408 C16.8150418,6.9111041 13.9932483,6.63063816 11.1645436,6.76231084 L11.1720976,6.89289404 L9.74553036,6.90067611 L9.65231169,1.90131628 L1.34009882,9.74564665 L9.8495174,17.9994698 L9.82267686,13.2057123 L10.959784,13.0471136 C14.6152418,12.3892171 18.3690615,12.5719402 21.8245813,13.7962161 C23.3016152,14.3193271 25.5740615,15.4843035 27.7368955,17.4025847 C27.9845415,17.6217027 28.2257212,17.8475774 28.4601438,18.0799364 C28.3161666,16.9589019 28.0324054,15.8588996 27.6150683,14.8039946 L27.6150683,14.8039946 Z" id="Shape"></path>
            </g>
        </g>
    </g>
</svg>