<?xml version="1.0" encoding="UTF-8"?>
<svg width="33px" height="33px" viewBox="0 0 33 33" version="1.1" xmlns="http://www.w3.org/2000/svg" xmlns:xlink="http://www.w3.org/1999/xlink">
    <!-- Generator: Sketch 53 (72520) - https://sketchapp.com -->
    <title>Home</title>
    <desc>Created with Sketch.</desc>
    <g id="Page-1" stroke="none" stroke-width="1" fill="none" fill-rule="evenodd">
        <g id="基金实时监测" transform="translate(-40.000000, -294.000000)" fill="#C0C4CA">
            <g id="Home" transform="translate(40.000000, 294.000000)">
                <path d="M27.7931783,14.6556916 L27.7931783,30.9360257 L22.6706616,30.9360257 L22.6706616,20.6308971 C22.6706616,20.0603556 22.2109862,19.5989099 21.6426336,19.5989099 L11.3976001,19.5989099 C10.8321847,19.5989099 10.3725093,20.0588813 10.3695721,20.6279485 L10.3372626,30.9360257 L5.20740281,30.9360257 L5.20740281,14.6556916 C5.20740281,14.5731326 5.17949919,14.5008935 5.16187585,14.4242316 L16.5406774,2.52247141 L27.8431111,14.4109632 C27.8225506,14.4905736 27.7931783,14.5687098 27.7931783,14.6556916 M32.7144953,16.544228 L17.2823262,0.316967477 C17.0884695,0.113518585 16.8211822,0 16.5406774,0 C16.2601726,0 15.9928853,0.113518585 15.7990286,0.316967477 L0.286085835,16.544228 C-0.107502034,16.9555486 -0.0928159198,17.608649 0.316926675,18.0022784 C0.72666927,18.3973821 1.37579553,18.3855879 1.7693834,17.9727931 L3.15134678,16.5265368 L3.15134678,31.9680129 C3.15134678,32.5385543 3.61249077,33 4.17937479,33 L11.3623534,33 C11.9277688,33 12.3874442,32.5400286 12.3903814,31.9709614 L12.4226909,21.6628842 L20.6146055,21.6628842 L20.6146055,31.9680129 C20.6146055,32.5385543 21.0742809,33 21.6426336,33 L28.8212063,33 C29.389559,33 29.8492344,32.5385543 29.8492344,31.9680129 L29.8492344,16.5206397 L31.2297291,17.9742673 C31.4323975,18.1836133 31.702622,18.2912348 31.9728465,18.2912348 C32.2283849,18.2897605 32.4853919,18.1954074 32.6836545,18.0022784 C33.0933971,17.608649 33.1066146,16.9555486 32.7144953,16.544228" id="Icon"></path>
            </g>
        </g>
    </g>
</svg>