<?xml version="1.0" encoding="UTF-8"?>
<svg width="26px" height="19px" viewBox="0 0 26 19" version="1.1" xmlns="http://www.w3.org/2000/svg" xmlns:xlink="http://www.w3.org/1999/xlink">
    <!-- Generator: Sketch 53 (72520) - https://sketchapp.com -->
    <title>Group 8</title>
    <desc>Created with Sketch.</desc>
    <g id="Page-1" stroke="none" stroke-width="1" fill="none" fill-rule="evenodd">
        <g id="test" transform="translate(-139.000000, -174.000000)" fill="#646464" fill-rule="nonzero">
            <g id="Group-14" transform="translate(140.000000, 174.000000)"> 
                <g id="Group-8" transform="translate(0.000000, 1.000000)">
                    <g id="yidiliansuo" transform="translate(0.120773, 0.241546)">
                        <path d="M17.3969656,16.6862923 L6.26132246,16.6862923 C2.81099034,16.6862923 0.00528381643,13.8805857 0.00528381643,10.4302536 C0.00528381643,6.9799215 2.81099034,4.17421498 6.26132246,4.17421498 L6.5942029,4.17421498 C7.19127415,1.75422705 9.68787742,0.0184933575 12.6151117,0.0184933575 C15.5661232,0.0184933575 18.134058,1.84933575 18.6677234,4.30631039 C21.5658967,4.90866546 23.6530042,7.45810688 23.6530042,10.4302536 C23.6530042,13.8805857 20.8472977,16.6862923 17.3969656,16.6862923 L17.3969656,16.6862923 Z M6.26132246,4.662968 C3.08046498,4.662968 0.494036836,7.24939614 0.494036836,10.4302536 C0.494036836,13.6111111 3.08310688,16.1975393 6.26132246,16.1975393 L17.3969656,16.1975393 C20.5778231,16.1975393 23.1642512,13.6111111 23.1642512,10.4302536 C23.1642512,7.63775664 21.1669686,5.25211353 18.4167421,4.75543478 L18.24766,4.72637379 L18.218599,4.55729167 C17.8091033,2.24826389 15.399683,0.507246377 12.6151117,0.507246377 C9.84110809,0.507246377 7.49245169,2.17164855 7.03011775,4.46746679 L6.99048913,4.662968 L6.26132246,4.662968 Z" id="Shape" stroke="#646464" stroke-width="0.6"></path>
                        <path d="M15.3204257,8.64960749 C15.1275664,6.97727959 13.7167874,5.66689312 12.0338919,5.67217693 C10.2162591,5.67746075 8.74471618,7.15164553 8.74471618,8.96927838 C8.74471618,10.0683122 9.37349034,10.7816274 9.99433877,11.5926932 C10.2955163,11.9863376 11.3839825,13.3680556 11.7934783,13.9360658 C11.885945,14.0628774 12.0735205,14.0628774 12.1659873,13.9360658 C12.5649155,13.383907 13.5794082,12.1633454 13.9413496,11.743282 C14.7180707,10.850317 15.4710145,9.95471014 15.3204257,8.64960749 L15.3204257,8.64960749 Z M12.0418176,9.51879529 C11.600619,9.51879529 11.2413194,9.16213768 11.2413194,8.7182971 C11.2413194,8.27709843 11.5979771,7.91779891 12.0418176,7.91779891 C12.4830163,7.91779891 12.8423158,8.27445652 12.8423158,8.7182971 C12.8423158,9.16213768 12.4830163,9.51879529 12.0418176,9.51879529 Z" id="Shape"></path>
                    </g>
                </g>
            </g>
        </g>
    </g>
</svg>