<?xml version="1.0" encoding="UTF-8"?>
<svg width="26px" height="19px" viewBox="0 0 26 19" version="1.1" xmlns="http://www.w3.org/2000/svg" xmlns:xlink="http://www.w3.org/1999/xlink">
    <!-- Generator: Sketch 53 (72520) - https://sketchapp.com -->
    <title>Group 10</title>
    <desc>Created with Sketch.</desc>
    <g id="Page-1" stroke="none" stroke-width="1" fill="none" fill-rule="evenodd">
        <g id="基金实时监测" transform="translate(-139.000000, -758.000000)" fill="#646464" fill-rule="nonzero">
            <g id="Group-13" transform="translate(140.000000, 758.000000)">
                <g id="Group-10" transform="translate(0.000000, 1.000000)">
                    <g id="yidiliansuo" stroke="#646464" stroke-width="0.5">
                        <path d="M17.8033463,17.0760722 L6.4075825,17.0760722 C2.87665307,17.0760722 0.00540724262,14.2048264 0.00540724262,10.6738969 C0.00540724262,7.14296749 2.87665307,4.27172167 6.4075825,4.27172167 L6.74823878,4.27172167 C7.3592572,1.79520455 9.91417934,0.0189253492 12.9097917,0.0189253492 C15.9297367,0.0189253492 18.5576567,1.89253492 19.1037882,4.40690273 C22.0696607,5.02332839 24.2055216,7.63232295 24.2055216,10.6738969 C24.2055216,14.2048264 21.3342757,17.0760722 17.8033463,17.0760722 L17.8033463,17.0760722 Z M6.4075825,4.77189161 C3.15242244,4.77189161 0.505577185,7.41873687 0.505577185,10.6738969 C0.505577185,13.929057 3.15512607,16.5759022 6.4075825,16.5759022 L17.8033463,16.5759022 C21.0585064,16.5759022 23.7053516,13.929057 23.7053516,10.6738969 C23.7053516,7.8161692 21.6614139,5.37479916 18.8469441,4.86651835 L18.6739124,4.83677852 L18.6441725,4.66374676 C18.2251112,2.30078173 15.7594086,0.519095291 12.9097917,0.519095291 C10.0709894,0.519095291 7.66747003,2.22237671 7.1943363,4.57182363 L7.15378198,4.77189161 L6.4075825,4.77189161 Z" id="Shape"></path>
                    </g>
                    <g id="Group-9" transform="translate(8.000000, 6.000000)">
                        <g id="mingxi">
                            <path d="M1.49902595,0.00870371619 L8.99922029,0.00870371619 L8.99922029,1.05648504 L1.49902595,1.05648504 L1.49902595,0.00870371619 Z M1.49902595,3.39290338 L8.99922029,3.39290338 L8.99922029,4.44074373 L1.49902595,4.44074373 L1.49902595,3.39290338 Z M1.49902595,6.77722111 L8.99922029,6.77722111 L8.99922029,7.8249434 L1.49902595,7.8249434 L1.49902595,6.77722111 Z M0.993157463,0.973543308 C0.993157463,1.01923505 0.957866927,1.056426 0.914371902,1.056426 L0.0868425366,1.056426 C0.0433475122,1.056426 0.00800078049,1.01923505 0.00800078049,0.973543308 L0.00800078049,0.104278563 C0.00800078049,0.0585277871 0.0432913171,0.0215139335 0.0868425366,0.0215139335 L0.914371902,0.0215139335 C0.957866927,0.0215139335 0.993157463,0.0584687539 0.993157463,0.104278563 L0.993157463,0.973543308 L0.993157463,0.973543308 Z M0.993157463,4.35786104 C0.993157463,4.40355278 0.957866927,4.44074373 0.914371902,4.44074373 L0.0868425366,4.44074373 C0.0433475122,4.44074373 0.00800078049,4.40355278 0.00800078049,4.35786104 L0.00800078049,3.48853726 C0.00800078049,3.44278648 0.0432913171,3.40577263 0.0868425366,3.40577263 L0.914371902,3.40577263 C0.957866927,3.40577263 0.993157463,3.44278648 0.993157463,3.48853726 L0.993157463,4.35786104 L0.993157463,4.35786104 Z M0.993157463,7.7420607 C0.993157463,7.78775244 0.957866927,7.8249434 0.914371902,7.8249434 L0.0868425366,7.8249434 C0.0433475122,7.8249434 0.00800078049,7.78775244 0.00800078049,7.7420607 L0.00800078049,6.87279596 C0.00800078049,6.82710421 0.0432913171,6.79003133 0.0868425366,6.79003133 L0.914371902,6.79003133 C0.957866927,6.79003133 0.993157463,6.82710421 0.993157463,6.87279596 L0.993157463,7.7420607 L0.993157463,7.7420607 Z" id="Shape"></path>
                        </g>
                    </g>
                </g>
            </g>
        </g>
    </g>
</svg>