<?xml version="1.0" encoding="UTF-8"?>
<svg width="59px" height="59px" viewBox="0 0 59 59" version="1.1" xmlns="http://www.w3.org/2000/svg" xmlns:xlink="http://www.w3.org/1999/xlink">
    <!-- Generator: Sketch 53 (72520) - https://sketchapp.com -->
    <title>Group 19</title>
    <desc>Created with Sketch.</desc>
    <g id="Page-1" stroke="none" stroke-width="1" fill="none" fill-rule="evenodd">
        <g id="基金实时监测" transform="translate(-380.000000, -147.000000)">
            <g id="Group-3" transform="translate(380.000000, 147.000000)">
                <g id="Group-19">
                    <rect id="Rectangle" fill="#3365BB" x="0" y="0" width="59" height="59"></rect>
                    <g id="department" transform="translate(15.000000, 13.000000)" fill="#FFFFFF" fill-rule="nonzero">
                        <path d="M8.81419287,26.4537976 C9.33248364,26.8483293 10.0218842,26.9363867 10.622704,26.6847996 C11.2235238,26.4332124 11.644484,25.8802027 11.7270131,25.2340839 C11.8095421,24.5879652 11.5411018,23.946898 11.0228111,23.5523664 C10.2216029,22.9424733 9.07767942,23.0975648 8.46778635,23.8987729 C7.85789328,24.699981 8.01298476,25.8439046 8.81419287,26.4537976 L8.81419287,26.4537976 Z" id="Path"></path>
                        <path d="M26.6978557,10.9640801 L19.8959772,8.33535083 L19.8959772,2.6484116 C19.897271,1.76517098 19.4538777,0.940608429 18.7163308,0.454665746 C17.9888391,-0.0258646409 17.0786954,-0.114240331 16.2739662,0.215593923 L3.27843025,4.98635635 L3.2163087,5.01101934 C1.26640815,5.84670994 0.00647444751,7.75590331 0.00647444751,9.87493094 L0.00647444751,29.0881906 C0.00647444751,31.2450746 1.76119268,32.9997928 3.91807666,32.9997928 L25.9291264,32.9997928 C28.0860104,32.9997928 29.8407286,31.2450746 29.8407286,29.0881906 L29.8407286,15.7953729 C29.8407286,13.7061133 28.6071153,11.8097155 26.6978557,10.9640801 Z M17.3766402,7.36169337 L17.3766402,30.4804558 L3.91807666,30.4804558 C3.15034185,30.4804558 2.52581146,29.8558591 2.52581146,29.0881906 L2.52581146,9.87493094 C2.52581146,8.77517403 3.17447445,7.78301934 4.18094959,7.33875414 L17.1676015,2.57124033 L17.2276015,2.54743923 C17.2432479,2.54074309 17.2799109,2.52522928 17.3275131,2.5566547 C17.3766402,2.58907459 17.3766402,2.63064365 17.3766402,2.6484116 L17.3766402,7.36169337 Z M27.3213916,29.0881906 C27.3213916,29.8558591 26.6967949,30.4804558 25.9291264,30.4804558 L19.8959772,30.4804558 L19.8959772,11.0356823 L25.7027175,13.2788204 C26.6869827,13.7265994 27.3213916,14.7113287 27.3213916,15.7953729 L27.3213916,29.0881906 Z" id="Shape"></path>
                        <path d="M8.84694571,13.3138597 C9.64815382,13.9237528 10.7920773,13.7686613 11.4019704,12.9674532 C12.0118635,12.1662451 11.856772,11.0223215 11.0555639,10.4124285 C10.2543558,9.8025354 9.11043226,9.95762688 8.50053919,10.758835 C7.89064612,11.5600431 8.0457376,12.7039666 8.84694571,13.3138597 L8.84694571,13.3138597 Z" id="Path"></path>
                        <path d="M8.12802141,18.434047 C8.12802141,19.440975 8.94429783,20.2572514 9.95122583,20.2572514 C10.9581538,20.2572514 11.7744302,19.440975 11.7744302,18.434047 C11.7744302,17.427119 10.9581538,16.6108425 9.95122583,16.6108425 C8.94429783,16.6108425 8.12802141,17.427119 8.12802141,18.434047 L8.12802141,18.434047 Z" id="Path"></path>
                    </g>
                </g>
            </g>
        </g>
    </g>
</svg>