<?xml version="1.0" encoding="UTF-8"?>
<svg width="33px" height="33px" viewBox="0 0 33 33" version="1.1" xmlns="http://www.w3.org/2000/svg" xmlns:xlink="http://www.w3.org/1999/xlink">
    <!-- Generator: Sketch 53 (72520) - https://sketchapp.com -->
    <title>jiance</title>
    <desc>Created with Sketch.</desc>
    <g id="Page-1" stroke="none" stroke-width="1" fill="none" fill-rule="evenodd">
        <g id="基金实时监测" transform="translate(-39.000000, -402.000000)" fill="#4E80D1" fill-rule="nonzero">
            <g id="jiance" transform="translate(39.000000, 402.000000)">
                <path d="M31.8649027,0.0241400778 L1.11557977,0.0241400778 C0.497182879,0.0241400778 0,0.344638132 0,0.963035019 L0,23.1308171 C0,23.753323 0.499237354,24.2505058 1.11557977,24.2505058 L5.80594553,24.2505058 C6.14374711,24.2493335 6.46330727,24.0970902 6.6770428,23.8355019 L12.9267549,16.0880778 L15.7763113,18.4425058 C16.2338476,18.8193351 16.9057929,18.7742986 17.3089494,18.3397821 L22.8539767,12.3550973 C23.9579058,13.0217544 25.3352295,13.0425454 26.4587777,12.4095126 C27.582326,11.7764797 28.2781198,10.5876467 28.2798444,9.29803891 C28.3109493,8.00082976 27.6366795,6.78862312 26.518161,6.13087285 C25.3996425,5.47312257 24.0125287,5.47312257 22.8940102,6.13087285 C21.7754917,6.78862312 21.1012219,8.00082976 21.1323268,9.29803891 C21.1323268,9.77262257 21.2268327,10.2266615 21.3994086,10.6416654 L16.3864903,14.3171206 L13.4485914,12.3222257 C13.2225992,12.1291051 12.9514086,11.9483113 12.6535097,11.9791284 C12.3495679,11.9975778 12.0655724,12.1366173 11.8645914,12.3653696 L5.27383658,20.1436109 L4.16236576,20.1436109 L4.16236576,4.13514397 L28.8160623,4.13514397 L28.8160623,20.1436109 L14.3135253,20.1436109 C13.6951284,20.1436109 13.1958911,20.4620545 13.1958911,21.0783969 L13.1958911,28.6121556 L7.66319066,28.6121556 C7.04684825,28.6121556 6.55788327,28.7580233 6.54761089,30.7549728 C6.539393,32.1848872 7.04684825,32.7211051 7.66319066,32.7211051 L22.6772918,32.7211051 C23.2977432,32.7211051 23.7641089,31.9691673 23.7949261,30.7549728 C23.8277977,29.4442179 23.2977432,28.6121556 22.6772918,28.6121556 L17.4835798,28.6121556 L17.4835798,24.2525603 L31.8587393,24.2525603 C32.1556786,24.2531092 32.4405841,24.1352527 32.6503594,23.9250918 C32.8601347,23.7149309 32.9774677,23.4298094 32.9763735,23.1328716 L32.9763735,0.963035019 C32.978428,0.344638132 32.4771362,0.0241400778 31.8649027,0.0241400778 Z M24.7071128,7.95235798 C25.4469079,7.95235798 26.0466304,8.55208039 26.0466304,9.29187549 C26.0466304,10.0316706 25.4469079,10.631393 24.7071128,10.631393 C23.9673177,10.631393 23.3675953,10.0316706 23.3675953,9.29187549 C23.3675953,8.55208039 23.9673177,7.95235798 24.7071128,7.95235798 L24.7071128,7.95235798 Z" id="Shape"></path>
            </g>
        </g>
    </g>
</svg>