<?xml version="1.0" encoding="UTF-8"?>
<svg width="26px" height="26px" viewBox="0 0 26 26" version="1.1" xmlns="http://www.w3.org/2000/svg" xmlns:xlink="http://www.w3.org/1999/xlink">
    <!-- Generator: Sketch 53 (72520) - https://sketchapp.com -->
    <title>Search</title>
    <desc>Created with Sketch.</desc>
    <g id="Page-1" stroke="none" stroke-width="1" fill="none" fill-rule="evenodd">
        <g id="基金实时监测" transform="translate(-419.000000, -34.000000)" fill="#8E8E93">
            <g id="Header">
                <g id="search" transform="translate(395.000000, 14.676129)">
                    <path d="M42.6285185,36.5387128 C42.5248789,36.4349548 42.0318244,36.9433671 41.9281848,36.8396091 C41.7983798,36.7096559 41.9281848,35.8375792 41.9281848,35.8375792 C43.1713278,34.1407829 43.8372747,32.0893966 43.8279895,29.9854107 C43.8042697,24.4933094 39.3654784,20.0447252 33.8775358,20.0130041 C31.251246,20.0011127 28.7292845,21.0408574 26.873473,22.9006124 C25.0176616,24.7603675 23.9821591,27.2856463 23.9976463,29.9138882 C24.0213662,35.4064895 28.4605625,39.8554791 33.9490047,39.8872002 C36.0599776,39.8963562 38.1173148,39.2221306 39.8139734,37.9651467 L39.8212108,37.9597146 C39.8212108,37.9597146 40.6217982,37.8349685 40.7463857,37.9597146 C40.8397019,38.0531496 40.385591,38.5248133 40.4863671,38.6257177 C42.7453,40.8875264 46.7500702,44.8973952 46.7500702,44.8973952 C47.1246916,45.2907027 47.6829029,45.4499043 48.2084235,45.3133169 C48.7339441,45.1767295 49.1441994,44.7658148 49.2802346,44.2397831 C49.4162698,43.7137515 49.2567099,43.1552577 48.8633769,42.7806919 C48.8633769,42.7806919 44.7068046,38.6193725 42.6285185,36.5387128 Z M33.9417673,37.8990563 C29.5512534,37.8737808 25.9999541,34.3149701 25.9806806,29.921131 C25.9688305,27.8188098 26.7973006,25.7989924 28.2816703,24.3112983 C29.7660399,22.8236042 31.7831085,21.9915098 33.8838685,22.0002426 C38.2743824,22.0255181 41.8256817,25.5843288 41.8449552,29.9781679 C41.8568053,32.0804892 41.0283352,34.1003065 39.5439655,35.5880006 C38.0595959,37.0756947 36.0425274,37.9077891 33.9417673,37.8990563 Z" id="Search"></path>
                </g>
            </g>
        </g>
    </g>
</svg>