<?xml version="1.0" encoding="UTF-8"?>
<svg width="26px" height="19px" viewBox="0 0 26 19" version="1.1" xmlns="http://www.w3.org/2000/svg" xmlns:xlink="http://www.w3.org/1999/xlink">
    <!-- Generator: Sketch 53 (72520) - https://sketchapp.com -->
    <title>yidiliansuo</title>
    <desc>Created with Sketch.</desc>
    <g id="Page-1" stroke="none" stroke-width="1" fill="none" fill-rule="evenodd">
        <g id="基金实时监测" transform="translate(-139.000000, -655.000000)" fill="#646464" fill-rule="nonzero">
            <g id="Group-15" transform="translate(140.000000, 655.000000)">
                <g id="yidiliansuo" transform="translate(0.000000, 1.000000)">
                    <path d="M14.8131411,13.9966475 C14.6887746,13.9966475 14.5698152,13.9371678 14.4968175,13.8371339 C14.3210821,13.5965116 13.9425751,13.1098597 13.6668057,12.7556853 C13.5532536,12.6123934 13.4613305,12.4907304 13.4072581,12.4204363 L13.3153349,12.3014769 C12.9611605,11.8445649 12.5961717,11.3741348 12.5961717,10.6766005 C12.5961717,9.43834198 13.6046224,8.42718762 14.842881,8.42448399 L14.8482882,8.42448399 C15.99192,8.42448399 16.9544092,9.29505006 17.0895903,10.4549036 C17.1950315,11.3741348 16.6624181,11.9851533 16.191988,12.5258775 C15.9865128,12.7610926 15.3700871,13.5018848 15.1267612,13.8398375 C15.0564671,13.9344642 14.9375077,13.9966475 14.8131411,13.9966475 L14.8131411,13.9966475 Z M14.8509918,8.92195032 L14.8482882,8.92195032 C13.885799,8.92465394 13.1017489,9.70870412 13.1017489,10.6738969 C13.1017489,11.2011031 13.3856291,11.5687956 13.7154709,11.9932641 L13.807394,12.1149271 C13.8614664,12.1825176 13.9533896,12.3041806 14.064238,12.4474725 C14.3021567,12.7529817 14.6157768,13.1558213 14.8131411,13.4207762 C15.1024286,13.0422692 15.6269312,12.4096218 15.8161846,12.1933321 C16.2379496,11.7093839 16.6732326,11.2065103 16.5948276,10.508976 C16.4893864,9.60326288 15.7404833,8.92195032 14.8509918,8.92195032 L14.8509918,8.92195032 Z" id="Shape"></path>
                    <path d="M17.8033463,17.0760722 L6.4075825,17.0760722 C2.87665307,17.0760722 0.00540724262,14.2048264 0.00540724262,10.6738969 C0.00540724262,7.14296749 2.87665307,4.27172167 6.4075825,4.27172167 L6.74823878,4.27172167 C7.3592572,1.79520455 9.91417934,0.0189253492 12.9097917,0.0189253492 C15.9297367,0.0189253492 18.5576567,1.89253492 19.1037882,4.40690273 C22.0696607,5.02332839 24.2055216,7.63232295 24.2055216,10.6738969 C24.2055216,14.2048264 21.3342757,17.0760722 17.8033463,17.0760722 L17.8033463,17.0760722 Z M6.4075825,4.77189161 C3.15242244,4.77189161 0.505577185,7.41873687 0.505577185,10.6738969 C0.505577185,13.929057 3.15512607,16.5759022 6.4075825,16.5759022 L17.8033463,16.5759022 C21.0585064,16.5759022 23.7053516,13.929057 23.7053516,10.6738969 C23.7053516,7.8161692 21.6614139,5.37479916 18.8469441,4.86651835 L18.6739124,4.83677852 L18.6441725,4.66374676 C18.2251112,2.30078173 15.7594086,0.519095291 12.9097917,0.519095291 C10.0709894,0.519095291 7.66747003,2.22237671 7.1943363,4.57182363 L7.15378198,4.77189161 L6.4075825,4.77189161 Z" id="Shape" stroke="#646464" stroke-width="0.5"></path>
                    <path d="M15.6783,8.85165616 C15.4809356,7.14026387 14.0372018,5.7992677 12.3149951,5.80467495 C10.4549036,5.81008219 8.94898653,7.31870288 8.94898653,9.17879434 C8.94898653,10.3035008 9.5924484,11.0334786 10.2277994,11.8634903 C10.5360122,12.2663299 11.6499042,13.6803238 12.0689655,14.2616024 C12.1635923,14.3913762 12.3555494,14.3913762 12.4501761,14.2616024 C12.8584229,13.6965455 13.8966135,12.4474725 14.2670096,12.0175967 C15.0618743,11.1037727 15.8324064,10.1872451 15.6783,8.85165616 L15.6783,8.85165616 Z M12.3231059,9.74114757 C11.8716012,9.74114757 11.5039087,9.37615869 11.5039087,8.92195032 C11.5039087,8.47044556 11.8688975,8.10275306 12.3231059,8.10275306 C12.7746107,8.10275306 13.1423032,8.46774194 13.1423032,8.92195032 C13.1423032,9.37615869 12.7746107,9.74114757 12.3231059,9.74114757 Z" id="Shape"></path>
                </g>
            </g>
        </g>
    </g>
</svg>